<mxfile host="app.diagrams.net" modified="2023-11-13T06:16:18.955Z" agent="Mozilla/5.0 (Windows NT 10.0; Win64; x64) AppleWebKit/537.36 (KHTML, like Gecko) Chrome/119.0.0.0 Safari/537.36" etag="CoX9Y9hBXAHyaDFCpc1o" version="22.0.0" type="google">
  <diagram name="Page-1" id="BZWavf0FPUKdXzyIZEEN">
    <mxGraphModel grid="1" page="1" gridSize="10" guides="1" tooltips="1" connect="1" arrows="1" fold="1" pageScale="1" pageWidth="850" pageHeight="1100" math="0" shadow="0">
      <root>
        <mxCell id="0" />
        <mxCell id="1" parent="0" />
        <mxCell id="xZR_K9U9QpyJ1qIMd4OT-1" value="Citizenship Status of Urdu-speaking Populations" style="ellipse;whiteSpace=wrap;html=1;" vertex="1" parent="1">
          <mxGeometry x="290" y="390" width="140" height="90" as="geometry" />
        </mxCell>
        <mxCell id="xZR_K9U9QpyJ1qIMd4OT-2" value="Challenges in Bangladesh" style="rounded=1;whiteSpace=wrap;html=1;" vertex="1" parent="1">
          <mxGeometry x="420" y="290" width="80" height="50" as="geometry" />
        </mxCell>
        <mxCell id="xZR_K9U9QpyJ1qIMd4OT-3" value="" style="endArrow=none;html=1;rounded=0;entryX=0;entryY=0.75;entryDx=0;entryDy=0;exitX=0.664;exitY=0.011;exitDx=0;exitDy=0;exitPerimeter=0;" edge="1" parent="1" source="xZR_K9U9QpyJ1qIMd4OT-1" target="xZR_K9U9QpyJ1qIMd4OT-2">
          <mxGeometry width="50" height="50" relative="1" as="geometry">
            <mxPoint x="340" y="420" as="sourcePoint" />
            <mxPoint x="390" y="370" as="targetPoint" />
            <Array as="points" />
          </mxGeometry>
        </mxCell>
        <mxCell id="xZR_K9U9QpyJ1qIMd4OT-4" value="Linguistic and Cultural Differences" style="rounded=1;whiteSpace=wrap;html=1;" vertex="1" parent="1">
          <mxGeometry x="520" y="250" width="110" height="40" as="geometry" />
        </mxCell>
        <mxCell id="xZR_K9U9QpyJ1qIMd4OT-5" value="Bias in Favor of Urdu Speakers before indipendence" style="rounded=1;whiteSpace=wrap;html=1;" vertex="1" parent="1">
          <mxGeometry x="530" y="320" width="120" height="60" as="geometry" />
        </mxCell>
        <mxCell id="xZR_K9U9QpyJ1qIMd4OT-6" value="Exclusion from Inclusion" style="rounded=1;whiteSpace=wrap;html=1;" vertex="1" parent="1">
          <mxGeometry x="660" y="280" width="90" height="40" as="geometry" />
        </mxCell>
        <mxCell id="xZR_K9U9QpyJ1qIMd4OT-8" value="" style="endArrow=none;html=1;rounded=0;exitX=1;exitY=0.75;exitDx=0;exitDy=0;" edge="1" parent="1" source="xZR_K9U9QpyJ1qIMd4OT-2" target="xZR_K9U9QpyJ1qIMd4OT-5">
          <mxGeometry width="50" height="50" relative="1" as="geometry">
            <mxPoint x="330" y="490" as="sourcePoint" />
            <mxPoint x="380" y="440" as="targetPoint" />
          </mxGeometry>
        </mxCell>
        <mxCell id="xZR_K9U9QpyJ1qIMd4OT-9" value="" style="endArrow=none;html=1;rounded=0;exitX=0;exitY=0.75;exitDx=0;exitDy=0;entryX=1;entryY=0;entryDx=0;entryDy=0;" edge="1" parent="1" source="xZR_K9U9QpyJ1qIMd4OT-4" target="xZR_K9U9QpyJ1qIMd4OT-2">
          <mxGeometry width="50" height="50" relative="1" as="geometry">
            <mxPoint x="510" y="338" as="sourcePoint" />
            <mxPoint x="534" y="350" as="targetPoint" />
          </mxGeometry>
        </mxCell>
        <mxCell id="xZR_K9U9QpyJ1qIMd4OT-10" value="" style="endArrow=none;html=1;rounded=0;exitX=1;exitY=1;exitDx=0;exitDy=0;entryX=0;entryY=0.25;entryDx=0;entryDy=0;" edge="1" parent="1" source="xZR_K9U9QpyJ1qIMd4OT-4" target="xZR_K9U9QpyJ1qIMd4OT-6">
          <mxGeometry width="50" height="50" relative="1" as="geometry">
            <mxPoint x="530" y="290" as="sourcePoint" />
            <mxPoint x="510" y="300" as="targetPoint" />
          </mxGeometry>
        </mxCell>
        <mxCell id="xZR_K9U9QpyJ1qIMd4OT-11" value="" style="endArrow=none;html=1;rounded=0;exitX=1;exitY=0;exitDx=0;exitDy=0;" edge="1" parent="1" source="xZR_K9U9QpyJ1qIMd4OT-5">
          <mxGeometry width="50" height="50" relative="1" as="geometry">
            <mxPoint x="650" y="280" as="sourcePoint" />
            <mxPoint x="670" y="300" as="targetPoint" />
          </mxGeometry>
        </mxCell>
        <mxCell id="xZR_K9U9QpyJ1qIMd4OT-12" value="Inclusion and Exclusion DynamicsInclusion" style="rounded=1;whiteSpace=wrap;html=1;" vertex="1" parent="1">
          <mxGeometry x="480" y="390" width="100" height="50" as="geometry" />
        </mxCell>
        <mxCell id="xZR_K9U9QpyJ1qIMd4OT-13" style="edgeStyle=orthogonalEdgeStyle;rounded=0;orthogonalLoop=1;jettySize=auto;html=1;exitX=0.5;exitY=1;exitDx=0;exitDy=0;" edge="1" parent="1" source="xZR_K9U9QpyJ1qIMd4OT-12" target="xZR_K9U9QpyJ1qIMd4OT-12">
          <mxGeometry relative="1" as="geometry" />
        </mxCell>
        <mxCell id="xZR_K9U9QpyJ1qIMd4OT-14" value="Symbolic Nature of Languages and Cultures" style="rounded=1;whiteSpace=wrap;html=1;" vertex="1" parent="1">
          <mxGeometry x="620" y="400" width="100" height="40" as="geometry" />
        </mxCell>
        <mxCell id="xZR_K9U9QpyJ1qIMd4OT-15" value="" style="endArrow=none;html=1;rounded=0;exitX=0;exitY=0.5;exitDx=0;exitDy=0;entryX=0.993;entryY=0.367;entryDx=0;entryDy=0;entryPerimeter=0;" edge="1" parent="1" source="xZR_K9U9QpyJ1qIMd4OT-12" target="xZR_K9U9QpyJ1qIMd4OT-1">
          <mxGeometry width="50" height="50" relative="1" as="geometry">
            <mxPoint x="360" y="520" as="sourcePoint" />
            <mxPoint x="410" y="470" as="targetPoint" />
          </mxGeometry>
        </mxCell>
        <mxCell id="xZR_K9U9QpyJ1qIMd4OT-16" value="" style="endArrow=none;html=1;rounded=0;exitX=1;exitY=0.5;exitDx=0;exitDy=0;entryX=0;entryY=0.5;entryDx=0;entryDy=0;" edge="1" parent="1" source="xZR_K9U9QpyJ1qIMd4OT-12" target="xZR_K9U9QpyJ1qIMd4OT-14">
          <mxGeometry width="50" height="50" relative="1" as="geometry">
            <mxPoint x="570" y="460" as="sourcePoint" />
            <mxPoint x="620" y="410" as="targetPoint" />
          </mxGeometry>
        </mxCell>
        <mxCell id="xZR_K9U9QpyJ1qIMd4OT-18" value="Internal Conflicts within the Community" style="rounded=1;whiteSpace=wrap;html=1;" vertex="1" parent="1">
          <mxGeometry x="580" y="645" width="125" height="30" as="geometry" />
        </mxCell>
        <mxCell id="xZR_K9U9QpyJ1qIMd4OT-19" value="Ongoing Struggles" style="rounded=1;whiteSpace=wrap;html=1;" vertex="1" parent="1">
          <mxGeometry x="410" y="650" width="120" height="20" as="geometry" />
        </mxCell>
        <mxCell id="xZR_K9U9QpyJ1qIMd4OT-20" value="Structural Inequalities" style="rounded=1;whiteSpace=wrap;html=1;" vertex="1" parent="1">
          <mxGeometry x="600" y="580" width="120" height="30" as="geometry" />
        </mxCell>
        <mxCell id="xZR_K9U9QpyJ1qIMd4OT-21" value="&lt;div&gt;Granting of Citizenship&lt;/div&gt;&lt;div&gt;yet Challenges in Active Rights Exercise&lt;/div&gt;" style="rounded=1;whiteSpace=wrap;html=1;" vertex="1" parent="1">
          <mxGeometry x="440" y="580" width="135" height="50" as="geometry" />
        </mxCell>
        <mxCell id="xZR_K9U9QpyJ1qIMd4OT-22" value="Passive Citizenship" style="rounded=1;whiteSpace=wrap;html=1;" vertex="1" parent="1">
          <mxGeometry x="620" y="520" width="80" height="40" as="geometry" />
        </mxCell>
        <mxCell id="xZR_K9U9QpyJ1qIMd4OT-23" value="Limited Rights Exercise" style="rounded=1;whiteSpace=wrap;html=1;" vertex="1" parent="1">
          <mxGeometry x="480" y="520" width="90" height="40" as="geometry" />
        </mxCell>
        <mxCell id="xZR_K9U9QpyJ1qIMd4OT-24" value="Camps and Physical Borders reside" style="rounded=1;whiteSpace=wrap;html=1;" vertex="1" parent="1">
          <mxGeometry x="470" y="460" width="100" height="40" as="geometry" />
        </mxCell>
        <mxCell id="xZR_K9U9QpyJ1qIMd4OT-25" value="Stranded in Bangladesh" style="rounded=1;whiteSpace=wrap;html=1;" vertex="1" parent="1">
          <mxGeometry x="600" y="460" width="90" height="40" as="geometry" />
        </mxCell>
        <mxCell id="xZR_K9U9QpyJ1qIMd4OT-26" value="" style="endArrow=none;html=1;rounded=0;entryX=0;entryY=1;entryDx=0;entryDy=0;" edge="1" parent="1" target="xZR_K9U9QpyJ1qIMd4OT-22">
          <mxGeometry width="50" height="50" relative="1" as="geometry">
            <mxPoint x="510" y="580" as="sourcePoint" />
            <mxPoint x="530" y="550" as="targetPoint" />
          </mxGeometry>
        </mxCell>
        <mxCell id="xZR_K9U9QpyJ1qIMd4OT-27" value="" style="endArrow=none;html=1;rounded=0;exitX=0;exitY=0.5;exitDx=0;exitDy=0;entryX=1;entryY=0.5;entryDx=0;entryDy=0;" edge="1" parent="1" source="xZR_K9U9QpyJ1qIMd4OT-22" target="xZR_K9U9QpyJ1qIMd4OT-23">
          <mxGeometry width="50" height="50" relative="1" as="geometry">
            <mxPoint x="340" y="520" as="sourcePoint" />
            <mxPoint x="390" y="470" as="targetPoint" />
          </mxGeometry>
        </mxCell>
        <mxCell id="xZR_K9U9QpyJ1qIMd4OT-28" value="" style="endArrow=none;html=1;rounded=0;exitX=1;exitY=0.5;exitDx=0;exitDy=0;" edge="1" parent="1" source="xZR_K9U9QpyJ1qIMd4OT-24">
          <mxGeometry width="50" height="50" relative="1" as="geometry">
            <mxPoint x="550" y="530" as="sourcePoint" />
            <mxPoint x="600" y="480" as="targetPoint" />
          </mxGeometry>
        </mxCell>
        <mxCell id="xZR_K9U9QpyJ1qIMd4OT-29" value="" style="endArrow=none;html=1;rounded=0;exitX=0;exitY=1;exitDx=0;exitDy=0;entryX=1;entryY=0;entryDx=0;entryDy=0;" edge="1" parent="1" source="xZR_K9U9QpyJ1qIMd4OT-25" target="xZR_K9U9QpyJ1qIMd4OT-23">
          <mxGeometry width="50" height="50" relative="1" as="geometry">
            <mxPoint x="435" y="570" as="sourcePoint" />
            <mxPoint x="485" y="520" as="targetPoint" />
          </mxGeometry>
        </mxCell>
        <mxCell id="xZR_K9U9QpyJ1qIMd4OT-30" value="" style="endArrow=none;html=1;rounded=0;exitX=0.986;exitY=0.633;exitDx=0;exitDy=0;exitPerimeter=0;" edge="1" parent="1" source="xZR_K9U9QpyJ1qIMd4OT-1">
          <mxGeometry width="50" height="50" relative="1" as="geometry">
            <mxPoint x="420" y="448" as="sourcePoint" />
            <mxPoint x="470" y="470" as="targetPoint" />
          </mxGeometry>
        </mxCell>
        <mxCell id="xZR_K9U9QpyJ1qIMd4OT-33" value="" style="endArrow=none;html=1;rounded=0;entryX=0;entryY=0.25;entryDx=0;entryDy=0;" edge="1" parent="1" source="xZR_K9U9QpyJ1qIMd4OT-21" target="xZR_K9U9QpyJ1qIMd4OT-20">
          <mxGeometry width="50" height="50" relative="1" as="geometry">
            <mxPoint x="340" y="520" as="sourcePoint" />
            <mxPoint x="390" y="470" as="targetPoint" />
          </mxGeometry>
        </mxCell>
        <mxCell id="xZR_K9U9QpyJ1qIMd4OT-35" value="" style="endArrow=none;html=1;rounded=0;exitX=0;exitY=0.25;exitDx=0;exitDy=0;" edge="1" parent="1" source="xZR_K9U9QpyJ1qIMd4OT-23" target="xZR_K9U9QpyJ1qIMd4OT-1">
          <mxGeometry width="50" height="50" relative="1" as="geometry">
            <mxPoint x="340" y="520" as="sourcePoint" />
            <mxPoint x="390" y="470" as="targetPoint" />
          </mxGeometry>
        </mxCell>
        <mxCell id="xZR_K9U9QpyJ1qIMd4OT-36" value="" style="endArrow=none;html=1;rounded=0;exitX=0.104;exitY=-0.04;exitDx=0;exitDy=0;exitPerimeter=0;" edge="1" parent="1" source="xZR_K9U9QpyJ1qIMd4OT-21">
          <mxGeometry width="50" height="50" relative="1" as="geometry">
            <mxPoint x="330" y="530" as="sourcePoint" />
            <mxPoint x="380" y="480" as="targetPoint" />
          </mxGeometry>
        </mxCell>
        <mxCell id="xZR_K9U9QpyJ1qIMd4OT-37" value="" style="endArrow=none;html=1;rounded=0;exitX=0.058;exitY=-0.2;exitDx=0;exitDy=0;exitPerimeter=0;" edge="1" parent="1" source="xZR_K9U9QpyJ1qIMd4OT-19">
          <mxGeometry width="50" height="50" relative="1" as="geometry">
            <mxPoint x="300" y="530" as="sourcePoint" />
            <mxPoint x="350" y="480" as="targetPoint" />
          </mxGeometry>
        </mxCell>
        <mxCell id="xZR_K9U9QpyJ1qIMd4OT-38" value="" style="endArrow=none;html=1;rounded=0;exitX=1;exitY=0.5;exitDx=0;exitDy=0;entryX=0;entryY=0.5;entryDx=0;entryDy=0;" edge="1" parent="1" source="xZR_K9U9QpyJ1qIMd4OT-19" target="xZR_K9U9QpyJ1qIMd4OT-18">
          <mxGeometry width="50" height="50" relative="1" as="geometry">
            <mxPoint x="530" y="710" as="sourcePoint" />
            <mxPoint x="580" y="660" as="targetPoint" />
          </mxGeometry>
        </mxCell>
        <mxCell id="xZR_K9U9QpyJ1qIMd4OT-39" value="Negative Community" style="rounded=1;whiteSpace=wrap;html=1;" vertex="1" parent="1">
          <mxGeometry x="580" y="705" width="120" height="30" as="geometry" />
        </mxCell>
        <mxCell id="xZR_K9U9QpyJ1qIMd4OT-43" value="" style="endArrow=none;html=1;rounded=0;exitX=0.5;exitY=0;exitDx=0;exitDy=0;entryX=0.656;entryY=0.933;entryDx=0;entryDy=0;entryPerimeter=0;" edge="1" parent="1" source="xZR_K9U9QpyJ1qIMd4OT-39" target="xZR_K9U9QpyJ1qIMd4OT-18">
          <mxGeometry width="50" height="50" relative="1" as="geometry">
            <mxPoint x="590" y="730" as="sourcePoint" />
            <mxPoint x="640" y="680" as="targetPoint" />
          </mxGeometry>
        </mxCell>
        <mxCell id="xZR_K9U9QpyJ1qIMd4OT-44" value="No constituent Power" style="rounded=1;whiteSpace=wrap;html=1;" vertex="1" parent="1">
          <mxGeometry x="410" y="703" width="120" height="35" as="geometry" />
        </mxCell>
        <mxCell id="xZR_K9U9QpyJ1qIMd4OT-45" value="" style="endArrow=none;html=1;rounded=0;exitX=1;exitY=0.5;exitDx=0;exitDy=0;" edge="1" parent="1" source="xZR_K9U9QpyJ1qIMd4OT-44">
          <mxGeometry width="50" height="50" relative="1" as="geometry">
            <mxPoint x="530" y="770" as="sourcePoint" />
            <mxPoint x="580" y="720" as="targetPoint" />
          </mxGeometry>
        </mxCell>
        <mxCell id="xZR_K9U9QpyJ1qIMd4OT-46" value="Legal recognition" style="rounded=1;whiteSpace=wrap;html=1;" vertex="1" parent="1">
          <mxGeometry x="140" y="270" width="120" height="30" as="geometry" />
        </mxCell>
        <mxCell id="xZR_K9U9QpyJ1qIMd4OT-47" value="Education access" style="rounded=1;whiteSpace=wrap;html=1;" vertex="1" parent="1">
          <mxGeometry x="140" y="320" width="120" height="30" as="geometry" />
        </mxCell>
        <mxCell id="xZR_K9U9QpyJ1qIMd4OT-48" value="Employement oppertunities" style="rounded=1;whiteSpace=wrap;html=1;" vertex="1" parent="1">
          <mxGeometry x="130" y="370" width="120" height="30" as="geometry" />
        </mxCell>
        <mxCell id="xZR_K9U9QpyJ1qIMd4OT-49" value="Government recognition for their better life" style="rounded=1;whiteSpace=wrap;html=1;" vertex="1" parent="1">
          <mxGeometry x="130" y="430" width="140" height="40" as="geometry" />
        </mxCell>
        <mxCell id="xZR_K9U9QpyJ1qIMd4OT-51" value="Deny Pakistani citizenship" style="rounded=1;whiteSpace=wrap;html=1;" vertex="1" parent="1">
          <mxGeometry x="420" y="180" width="100" height="40" as="geometry" />
        </mxCell>
        <mxCell id="xZR_K9U9QpyJ1qIMd4OT-52" value="Not born on Pakistani soil, hence nethir bangladesh nor pakistan bound to take them as citizens" style="rounded=1;whiteSpace=wrap;html=1;" vertex="1" parent="1">
          <mxGeometry x="570" y="110" width="190" height="60" as="geometry" />
        </mxCell>
        <mxCell id="xZR_K9U9QpyJ1qIMd4OT-53" value="" style="endArrow=none;html=1;rounded=0;exitX=0.5;exitY=0;exitDx=0;exitDy=0;" edge="1" parent="1" source="xZR_K9U9QpyJ1qIMd4OT-1">
          <mxGeometry width="50" height="50" relative="1" as="geometry">
            <mxPoint x="380" y="270" as="sourcePoint" />
            <mxPoint x="430" y="220" as="targetPoint" />
          </mxGeometry>
        </mxCell>
        <mxCell id="xZR_K9U9QpyJ1qIMd4OT-54" value="" style="endArrow=none;html=1;rounded=0;" edge="1" parent="1">
          <mxGeometry width="50" height="50" relative="1" as="geometry">
            <mxPoint x="520" y="200" as="sourcePoint" />
            <mxPoint x="570" y="150" as="targetPoint" />
          </mxGeometry>
        </mxCell>
        <mxCell id="xZR_K9U9QpyJ1qIMd4OT-55" value="Not any citizen untill 2008" style="rounded=1;whiteSpace=wrap;html=1;" vertex="1" parent="1">
          <mxGeometry x="660" y="210" width="120" height="30" as="geometry" />
        </mxCell>
        <mxCell id="xZR_K9U9QpyJ1qIMd4OT-56" value="" style="endArrow=none;html=1;rounded=0;exitX=0.75;exitY=0;exitDx=0;exitDy=0;" edge="1" parent="1" source="xZR_K9U9QpyJ1qIMd4OT-55">
          <mxGeometry width="50" height="50" relative="1" as="geometry">
            <mxPoint x="690" y="220" as="sourcePoint" />
            <mxPoint x="740" y="170" as="targetPoint" />
          </mxGeometry>
        </mxCell>
        <mxCell id="xZR_K9U9QpyJ1qIMd4OT-57" value="Cultural involvement programmes" style="rounded=1;whiteSpace=wrap;html=1;" vertex="1" parent="1">
          <mxGeometry x="140" y="500" width="120" height="50" as="geometry" />
        </mxCell>
        <mxCell id="xZR_K9U9QpyJ1qIMd4OT-58" value="" style="endArrow=none;html=1;rounded=0;" edge="1" parent="1" target="xZR_K9U9QpyJ1qIMd4OT-1">
          <mxGeometry width="50" height="50" relative="1" as="geometry">
            <mxPoint x="260" y="300" as="sourcePoint" />
            <mxPoint x="310" y="250" as="targetPoint" />
          </mxGeometry>
        </mxCell>
        <mxCell id="xZR_K9U9QpyJ1qIMd4OT-59" value="" style="endArrow=none;html=1;rounded=0;" edge="1" parent="1">
          <mxGeometry width="50" height="50" relative="1" as="geometry">
            <mxPoint x="260" y="520" as="sourcePoint" />
            <mxPoint x="310" y="470" as="targetPoint" />
          </mxGeometry>
        </mxCell>
        <mxCell id="xZR_K9U9QpyJ1qIMd4OT-60" value="" style="endArrow=none;html=1;rounded=0;exitX=1;exitY=0.25;exitDx=0;exitDy=0;" edge="1" parent="1" source="xZR_K9U9QpyJ1qIMd4OT-49">
          <mxGeometry width="50" height="50" relative="1" as="geometry">
            <mxPoint x="240" y="480" as="sourcePoint" />
            <mxPoint x="290" y="430" as="targetPoint" />
          </mxGeometry>
        </mxCell>
        <mxCell id="xZR_K9U9QpyJ1qIMd4OT-61" value="" style="endArrow=none;html=1;rounded=0;entryX=0.086;entryY=0.256;entryDx=0;entryDy=0;entryPerimeter=0;" edge="1" parent="1" target="xZR_K9U9QpyJ1qIMd4OT-1">
          <mxGeometry width="50" height="50" relative="1" as="geometry">
            <mxPoint x="250" y="390" as="sourcePoint" />
            <mxPoint x="300" y="340" as="targetPoint" />
          </mxGeometry>
        </mxCell>
        <mxCell id="xZR_K9U9QpyJ1qIMd4OT-62" value="" style="endArrow=none;html=1;rounded=0;entryX=0;entryY=0;entryDx=0;entryDy=0;" edge="1" parent="1" target="xZR_K9U9QpyJ1qIMd4OT-1">
          <mxGeometry width="50" height="50" relative="1" as="geometry">
            <mxPoint x="260" y="330" as="sourcePoint" />
            <mxPoint x="310" y="280" as="targetPoint" />
          </mxGeometry>
        </mxCell>
        <mxCell id="xZR_K9U9QpyJ1qIMd4OT-65" value="&lt;font style=&quot;font-size: 18px;&quot;&gt;&lt;b&gt;Resolves&lt;/b&gt;&lt;/font&gt;" style="text;html=1;align=center;verticalAlign=middle;resizable=0;points=[];autosize=1;strokeColor=none;fillColor=none;" vertex="1" parent="1">
          <mxGeometry x="150" y="20" width="100" height="40" as="geometry" />
        </mxCell>
        <mxCell id="xZR_K9U9QpyJ1qIMd4OT-66" value="&lt;font style=&quot;font-size: 18px;&quot;&gt;&lt;b&gt;Challenges&lt;/b&gt;&lt;/font&gt;" style="text;html=1;align=center;verticalAlign=middle;resizable=0;points=[];autosize=1;strokeColor=none;fillColor=none;" vertex="1" parent="1">
          <mxGeometry x="605" y="20" width="120" height="40" as="geometry" />
        </mxCell>
      </root>
    </mxGraphModel>
  </diagram>
</mxfile>
